<svg width="24" height="24" viewBox="0 0 24 24" fill="none" xmlns="http://www.w3.org/2000/svg">
<path d="M11.953 8.819L11.406 11.009C12.025 11.163 13.935 11.793 14.244 10.553C14.566 9.262 12.571 8.974 11.953 8.819ZM11.131 12.115L10.528 14.53C11.271 14.715 13.565 15.451 13.904 14.089C14.259 12.667 11.875 12.3 11.131 12.115Z" fill="black"/>
<path d="M14.421 2.29899C9.06398 0.963986 3.64098 4.22399 2.30598 9.58099C0.969981 14.936 4.22998 20.361 9.58298 21.697C14.94 23.032 20.366 19.773 21.7 14.416C23.036 9.05999 19.776 3.63499 14.421 2.29899ZM16.412 10.574C16.267 11.548 15.726 12.019 15.01 12.185C15.995 12.697 16.495 13.483 16.019 14.846C15.427 16.537 14.021 16.68 12.149 16.326L11.695 18.146L10.599 17.873L11.046 16.079C10.7536 16.0059 10.4619 15.9299 10.171 15.851L9.72198 17.655L8.62698 17.38L9.08098 15.557C8.82398 15.491 8.56398 15.421 8.29898 15.355L6.86998 15L7.41598 13.744C7.41598 13.744 8.22398 13.959 8.21298 13.943C8.52398 14.02 8.66098 13.818 8.71498 13.682L9.43398 10.807L9.54898 10.836C9.51188 10.821 9.47379 10.8087 9.43498 10.799L9.94698 8.74599C9.95998 8.51199 9.88098 8.21799 9.43598 8.10699C9.45398 8.09599 8.63898 7.90899 8.63898 7.90899L8.92998 6.73699L10.444 7.11499L10.443 7.11999C10.67 7.17699 10.904 7.23099 11.143 7.28499L11.592 5.48299L12.689 5.75599L12.249 7.52199C12.543 7.58899 12.84 7.65699 13.128 7.72899L13.566 5.97399L14.663 6.24699L14.214 8.04899C15.598 8.52799 16.61 9.24399 16.412 10.574Z" fill="black"/>
</svg>
